# xmcd
#
# Track frame offsets: 
#        183
#        19058
#        44618
#        65553
#        88583
#        109510
#        125850
#        145335
#
# Disc length: 2500 seconds
#
# Revision: 1
# Processed by: cddbd v1.5.2PL0 Copyright (c) Steve Scherf et al.
# Submitted via: ExactAudioCopy v1.0b1
#
DISCID=7209c208
DTITLE=Albert Collins - Frostbite
DYEAR=1980
DGENRE=Blues
TTITLE0=If You Love Me Like You Say
TTITLE1=Blue Monday Hangover
TTITLE2=I Got A Problem
TTITLE3=The Highway Is Like A Woman
TTITLE4=Brick
TTITLE5=Don't Go Reaching Across My Plate
TTITLE6=Give Me My Blues
TTITLE7=Snowed In
EXTD=
EXTT0=
EXTT1=
EXTT2=
EXTT3=
EXTT4=
EXTT5=
EXTT6=
EXTT7=
PLAYORDER=
